<mxfile host="app.diagrams.net" modified="2021-02-07T10:11:54.736Z" agent="5.0 (Macintosh; Intel Mac OS X 10_15_7) AppleWebKit/537.36 (KHTML, like Gecko) Chrome/88.0.4324.146 Safari/537.36" etag="h7W49mHRtRGUoyj9C_jd" version="14.2.9" type="github">
  <diagram name="Page-1" id="e7e014a7-5840-1c2e-5031-d8a46d1fe8dd">
    <mxGraphModel dx="1577" dy="1225" grid="1" gridSize="10" guides="1" tooltips="1" connect="1" arrows="1" fold="1" page="1" pageScale="1" pageWidth="1169" pageHeight="826" background="#ffffff" math="0" shadow="0">
      <root>
        <mxCell id="0" />
        <mxCell id="1" parent="0" />
        <mxCell id="2" value="资源接入管理" style="swimlane;whiteSpace=wrap" parent="1" vertex="1">
          <mxGeometry x="164.5" y="128" width="280" height="570" as="geometry" />
        </mxCell>
        <mxCell id="5" value="" style="ellipse;shape=startState;fillColor=#000000;strokeColor=#ff0000;" parent="2" vertex="1">
          <mxGeometry x="85.5" y="40" width="30" height="30" as="geometry" />
        </mxCell>
        <mxCell id="8" value="价格协商保存上链" style="" parent="2" vertex="1">
          <mxGeometry x="135.5" y="222" width="110" height="50" as="geometry" />
        </mxCell>
        <mxCell id="10" value="写入K8S资源" style="" parent="2" vertex="1">
          <mxGeometry x="135.5" y="325" width="110" height="50" as="geometry" />
        </mxCell>
        <mxCell id="11" value="" style="endArrow=open;strokeColor=#FF0000;endFill=1;rounded=0" parent="2" source="8" target="10" edge="1">
          <mxGeometry relative="1" as="geometry" />
        </mxCell>
        <mxCell id="1ZK6b1DigH0FIfmaJFkL-52" style="edgeStyle=orthogonalEdgeStyle;rounded=0;orthogonalLoop=1;jettySize=auto;html=1;exitX=1;exitY=0.5;exitDx=0;exitDy=0;strokeColor=#FF0000;" edge="1" parent="2" source="1ZK6b1DigH0FIfmaJFkL-47" target="8">
          <mxGeometry relative="1" as="geometry" />
        </mxCell>
        <mxCell id="1ZK6b1DigH0FIfmaJFkL-53" value="准确" style="edgeLabel;html=1;align=center;verticalAlign=middle;resizable=0;points=[];" vertex="1" connectable="0" parent="1ZK6b1DigH0FIfmaJFkL-52">
          <mxGeometry x="0.0378" relative="1" as="geometry">
            <mxPoint as="offset" />
          </mxGeometry>
        </mxCell>
        <mxCell id="1ZK6b1DigH0FIfmaJFkL-47" value="&lt;span&gt;验证资源&lt;br&gt;准确性&lt;/span&gt;" style="rhombus;whiteSpace=wrap;html=1;" vertex="1" parent="2">
          <mxGeometry x="60.5" y="102" width="80" height="68" as="geometry" />
        </mxCell>
        <mxCell id="1ZK6b1DigH0FIfmaJFkL-48" value="" style="endArrow=open;strokeColor=#FF0000;endFill=1;rounded=0;exitX=0.5;exitY=1;exitDx=0;exitDy=0;" edge="1" parent="2" source="5" target="1ZK6b1DigH0FIfmaJFkL-47">
          <mxGeometry relative="1" as="geometry">
            <mxPoint x="100.5" y="160" as="sourcePoint" />
            <mxPoint x="265" y="340" as="targetPoint" />
          </mxGeometry>
        </mxCell>
        <mxCell id="3" value="资源调度器" style="swimlane;whiteSpace=wrap" parent="1" vertex="1">
          <mxGeometry x="444.5" y="128" width="280" height="570" as="geometry" />
        </mxCell>
        <mxCell id="13" value="" style="ellipse;shape=startState;fillColor=#000000;strokeColor=#ff0000;" parent="3" vertex="1">
          <mxGeometry x="105.5" y="40" width="30" height="30" as="geometry" />
        </mxCell>
        <mxCell id="14" value="" style="edgeStyle=elbowEdgeStyle;elbow=horizontal;verticalAlign=bottom;endArrow=open;endSize=8;strokeColor=#FF0000;endFill=1;rounded=0" parent="3" source="13" target="15" edge="1">
          <mxGeometry x="85.5" y="20" as="geometry">
            <mxPoint x="100.5" y="90" as="targetPoint" />
          </mxGeometry>
        </mxCell>
        <mxCell id="15" value="初始化获取&#xa;全局资源视图" style="" parent="3" vertex="1">
          <mxGeometry x="65.5" y="110" width="110" height="50" as="geometry" />
        </mxCell>
        <mxCell id="1ZK6b1DigH0FIfmaJFkL-57" style="edgeStyle=orthogonalEdgeStyle;rounded=0;orthogonalLoop=1;jettySize=auto;html=1;entryX=0.5;entryY=0;entryDx=0;entryDy=0;entryPerimeter=0;strokeColor=#FF0000;" edge="1" parent="3" source="16" target="31">
          <mxGeometry relative="1" as="geometry" />
        </mxCell>
        <mxCell id="1ZK6b1DigH0FIfmaJFkL-58" value="list/watch" style="edgeLabel;html=1;align=center;verticalAlign=middle;resizable=0;points=[];" vertex="1" connectable="0" parent="1ZK6b1DigH0FIfmaJFkL-57">
          <mxGeometry x="0.0545" y="2" relative="1" as="geometry">
            <mxPoint as="offset" />
          </mxGeometry>
        </mxCell>
        <mxCell id="16" value="资源接入&#xa;调度算法执行" style="" parent="3" vertex="1">
          <mxGeometry x="65.5" y="215" width="110" height="50" as="geometry" />
        </mxCell>
        <mxCell id="17" value="" style="endArrow=open;strokeColor=#FF0000;endFill=1;rounded=0" parent="3" source="15" target="16" edge="1">
          <mxGeometry relative="1" as="geometry" />
        </mxCell>
        <mxCell id="31" value="资源描述CRD" style="shape=note;whiteSpace=wrap;size=17" parent="3" vertex="1">
          <mxGeometry x="70.5" y="325" width="100" height="50" as="geometry" />
        </mxCell>
        <mxCell id="4" value="资源部署控制器" style="swimlane;whiteSpace=wrap" parent="1" vertex="1">
          <mxGeometry x="724.5" y="128" width="325.5" height="570" as="geometry" />
        </mxCell>
        <mxCell id="1ZK6b1DigH0FIfmaJFkL-68" style="edgeStyle=orthogonalEdgeStyle;rounded=0;orthogonalLoop=1;jettySize=auto;html=1;exitX=0;exitY=0;exitDx=94.5;exitDy=33.5;exitPerimeter=0;entryX=0;entryY=0.5;entryDx=0;entryDy=0;strokeColor=#FF0000;" edge="1" parent="4" target="1ZK6b1DigH0FIfmaJFkL-64">
          <mxGeometry relative="1" as="geometry">
            <mxPoint x="100" y="248.5000000000001" as="sourcePoint" />
          </mxGeometry>
        </mxCell>
        <mxCell id="1ZK6b1DigH0FIfmaJFkL-60" value="资源部署CRD" style="shape=note;whiteSpace=wrap;size=17" vertex="1" parent="4">
          <mxGeometry x="15.5" y="215" width="84.5" height="50" as="geometry" />
        </mxCell>
        <mxCell id="1ZK6b1DigH0FIfmaJFkL-62" value="" style="ellipse;shape=startState;fillColor=#000000;strokeColor=#ff0000;" vertex="1" parent="4">
          <mxGeometry x="203" y="32" width="30" height="30" as="geometry" />
        </mxCell>
        <mxCell id="1ZK6b1DigH0FIfmaJFkL-63" value="" style="edgeStyle=elbowEdgeStyle;elbow=horizontal;verticalAlign=bottom;endArrow=open;endSize=8;strokeColor=#FF0000;endFill=1;rounded=0" edge="1" parent="4" source="1ZK6b1DigH0FIfmaJFkL-62" target="1ZK6b1DigH0FIfmaJFkL-64">
          <mxGeometry x="-261.5" y="-116" as="geometry">
            <mxPoint x="-246.5" y="-46" as="targetPoint" />
          </mxGeometry>
        </mxCell>
        <mxCell id="1ZK6b1DigH0FIfmaJFkL-64" value="执行远程部署指令" style="" vertex="1" parent="4">
          <mxGeometry x="165.5" y="223" width="110" height="50" as="geometry" />
        </mxCell>
        <mxCell id="1ZK6b1DigH0FIfmaJFkL-69" value="list/watch" style="text;html=1;align=center;verticalAlign=middle;resizable=0;points=[];autosize=1;" vertex="1" parent="4">
          <mxGeometry x="100" y="230" width="60" height="20" as="geometry" />
        </mxCell>
        <mxCell id="20" value="" style="endArrow=open;strokeColor=#FF0000;endFill=1;rounded=0" parent="1" source="10" edge="1">
          <mxGeometry relative="1" as="geometry">
            <mxPoint x="510" y="478" as="targetPoint" />
          </mxGeometry>
        </mxCell>
        <mxCell id="1ZK6b1DigH0FIfmaJFkL-59" value="CRUD" style="edgeLabel;html=1;align=center;verticalAlign=middle;resizable=0;points=[];" vertex="1" connectable="0" parent="20">
          <mxGeometry x="-0.3456" y="-1" relative="1" as="geometry">
            <mxPoint x="12.5" y="-9" as="offset" />
          </mxGeometry>
        </mxCell>
        <mxCell id="1ZK6b1DigH0FIfmaJFkL-41" value="Actor" style="shape=umlActor;verticalLabelPosition=bottom;verticalAlign=top;html=1;" vertex="1" parent="1">
          <mxGeometry x="20" y="230" width="30" height="60" as="geometry" />
        </mxCell>
        <mxCell id="1ZK6b1DigH0FIfmaJFkL-42" value="资源提交注册" style="html=1;verticalAlign=bottom;endArrow=block;" edge="1" parent="1">
          <mxGeometry relative="1" as="geometry">
            <mxPoint x="60" y="263" as="sourcePoint" />
            <mxPoint x="219.5" y="263" as="targetPoint" />
          </mxGeometry>
        </mxCell>
        <mxCell id="1ZK6b1DigH0FIfmaJFkL-55" style="edgeStyle=orthogonalEdgeStyle;rounded=0;orthogonalLoop=1;jettySize=auto;html=1;exitX=0.5;exitY=1;exitDx=0;exitDy=0;strokeColor=#FF0000;" edge="1" parent="1" source="1ZK6b1DigH0FIfmaJFkL-47">
          <mxGeometry relative="1" as="geometry">
            <mxPoint x="90" y="319" as="targetPoint" />
            <Array as="points">
              <mxPoint x="265" y="319" />
              <mxPoint x="90" y="319" />
            </Array>
          </mxGeometry>
        </mxCell>
        <mxCell id="1ZK6b1DigH0FIfmaJFkL-56" value="异常返回" style="edgeLabel;html=1;align=center;verticalAlign=middle;resizable=0;points=[];" vertex="1" connectable="0" parent="1ZK6b1DigH0FIfmaJFkL-55">
          <mxGeometry x="0.5933" y="-1" relative="1" as="geometry">
            <mxPoint as="offset" />
          </mxGeometry>
        </mxCell>
        <mxCell id="1ZK6b1DigH0FIfmaJFkL-61" style="edgeStyle=orthogonalEdgeStyle;rounded=0;orthogonalLoop=1;jettySize=auto;html=1;entryX=0;entryY=0.5;entryDx=0;entryDy=0;entryPerimeter=0;strokeColor=#FF0000;" edge="1" parent="1" source="16" target="1ZK6b1DigH0FIfmaJFkL-60">
          <mxGeometry relative="1" as="geometry" />
        </mxCell>
        <mxCell id="1ZK6b1DigH0FIfmaJFkL-70" style="edgeStyle=orthogonalEdgeStyle;rounded=0;orthogonalLoop=1;jettySize=auto;html=1;exitX=0.5;exitY=1;exitDx=0;exitDy=0;strokeColor=#FF0000;entryX=0;entryY=0;entryDx=100;entryDy=33.5;entryPerimeter=0;" edge="1" parent="1" source="1ZK6b1DigH0FIfmaJFkL-64" target="31">
          <mxGeometry relative="1" as="geometry">
            <mxPoint x="660" y="490" as="targetPoint" />
          </mxGeometry>
        </mxCell>
        <mxCell id="1ZK6b1DigH0FIfmaJFkL-71" value="update status" style="edgeLabel;html=1;align=center;verticalAlign=middle;resizable=0;points=[];" vertex="1" connectable="0" parent="1ZK6b1DigH0FIfmaJFkL-70">
          <mxGeometry x="0.247" y="2" relative="1" as="geometry">
            <mxPoint x="-11.33" y="-10.5" as="offset" />
          </mxGeometry>
        </mxCell>
        <mxCell id="1ZK6b1DigH0FIfmaJFkL-74" style="edgeStyle=orthogonalEdgeStyle;rounded=0;orthogonalLoop=1;jettySize=auto;html=1;exitX=0.5;exitY=0.5;exitDx=0;exitDy=0;exitPerimeter=0;entryX=0.5;entryY=1;entryDx=0;entryDy=0;entryPerimeter=0;" edge="1" parent="1" source="1ZK6b1DigH0FIfmaJFkL-72" target="31">
          <mxGeometry relative="1" as="geometry" />
        </mxCell>
        <mxCell id="1ZK6b1DigH0FIfmaJFkL-75" value="资源状态查询" style="edgeLabel;html=1;align=center;verticalAlign=middle;resizable=0;points=[];" vertex="1" connectable="0" parent="1ZK6b1DigH0FIfmaJFkL-74">
          <mxGeometry x="-0.7858" y="2" relative="1" as="geometry">
            <mxPoint x="20" y="-8" as="offset" />
          </mxGeometry>
        </mxCell>
        <mxCell id="1ZK6b1DigH0FIfmaJFkL-72" value="Actor" style="shape=umlActor;verticalLabelPosition=bottom;verticalAlign=top;html=1;" vertex="1" parent="1">
          <mxGeometry x="20" y="550" width="30" height="60" as="geometry" />
        </mxCell>
      </root>
    </mxGraphModel>
  </diagram>
</mxfile>
